<?xml version="1.0" encoding="utf-8"?>
<!-- Generator: Adobe Illustrator 24.1.1, SVG Export Plug-In . SVG Version: 6.00 Build 0)  -->
<svg version="1.1" id="Layer_1" xmlns="http://www.w3.org/2000/svg" xmlns:xlink="http://www.w3.org/1999/xlink" x="0px" y="0px"
	 viewBox="0 0 512 512" style="enable-background:new 0 0 512 512;" xml:space="preserve">
<g>
	<path d="M168.8,251.82L9.81,92.82C-2.96,80.53-3.3,60.17,9.02,47.44c12.33-12.77,32.65-13.14,45.42-0.82l0.78,0.82l181.7,181.67
		c12.51,12.55,12.51,32.87,0,45.42l-181.7,181.7c-12.77,12.33-33.09,11.98-45.42-0.78c-12.01-12.45-12.01-32.18,0-44.63
		L168.8,251.82z M222.94,410.15h256.95c17.75,0,32.12,14.37,32.12,32.12c0,17.72-14.37,32.12-32.12,32.12H222.94
		c-17.72,0-32.12-14.4-32.12-32.12C190.82,424.51,205.21,410.15,222.94,410.15z"/>
</g>
</svg>
